{
    "asset" : {
        "generator" : "Khronos glTF Blender I/O v3.2.43",
        "version" : "2.0"
    },
    "scene" : 0,
    "scenes" : [
        {
            "name" : "Scene",
            "nodes" : [
                14
            ]
        }
    ],
    "nodes" : [
        {
            "mesh" : 0,
            "name" : "Sedan Body_Glass_0"
        },
        {
            "children" : [
                0
            ],
            "name" : "Glass",
            "rotation" : [
                0,
                0.7071068286895752,
                0.7071068286895752,
                1.2560739454502297e-15
            ],
            "translation" : [
                2.3410298824310303,
                0,
                7541.36962890625
            ]
        },
        {
            "mesh" : 1,
            "name" : "Sedan Body_Optics_0"
        },
        {
            "children" : [
                2
            ],
            "name" : "Optics",
            "rotation" : [
                0,
                0.7071068286895752,
                0.7071068286895752,
                1.2560739454502297e-15
            ],
            "translation" : [
                2.3410298824310303,
                0,
                7541.36962890625
            ]
        },
        {
            "mesh" : 2,
            "name" : "Sedan Body_Body_0",
            "translation" : [
                0,
                3.507751671349979e-06,
                0
            ]
        },
        {
            "children" : [
                4
            ],
            "name" : "Sedan Body",
            "rotation" : [
                0,
                0.7071066498756409,
                0.70710688829422,
                3.0908616110991716e-08
            ],
            "translation" : [
                2.3410298824310303,
                0,
                7541.36962890625
            ]
        },
        {
            "mesh" : 3,
            "name" : "Wheel_A_Wheel_0",
            "translation" : [
                1.70971397892572e-05,
                8.438077929895371e-05,
                -2.4796940124360844e-05
            ]
        },
        {
            "children" : [
                6
            ],
            "name" : "Wheel_A",
            "rotation" : [
                0,
                -0.7071068286895752,
                -0.7071068286895752,
                5.338507946817117e-08
            ],
            "translation" : [
                -785.8687133789062,
                346.9958801269531,
                6052.63232421875
            ]
        },
        {
            "mesh" : 4,
            "name" : "Wheel_A001_Wheel_0",
            "translation" : [
                -3.4257951483596116e-05,
                8.460076060146093e-05,
                3.382293289178051e-05
            ]
        },
        {
            "children" : [
                8
            ],
            "name" : "Wheel_A001",
            "rotation" : [
                0,
                -0.7071068286895752,
                -0.7071068286895752,
                5.338507946817117e-08
            ],
            "translation" : [
                -781.9380493164062,
                345.4945983886719,
                8987.4091796875
            ]
        },
        {
            "mesh" : 5,
            "name" : "Wheel_A002_Wheel_0",
            "translation" : [
                1.540015364298597e-05,
                8.741735655348748e-06,
                -2.692215275601484e-05
            ]
        },
        {
            "children" : [
                10
            ],
            "name" : "Wheel_A002",
            "rotation" : [
                0,
                -0.7071068286895752,
                -0.7071068286895752,
                5.338507946817117e-08
            ],
            "translation" : [
                786.6180419921875,
                345.4944152832031,
                6036.814453125
            ]
        },
        {
            "mesh" : 6,
            "name" : "Wheel_A003_Wheel_0",
            "translation" : [
                -3.4257951483596116e-05,
                8.741793863009661e-06,
                3.382295471965335e-05
            ]
        },
        {
            "children" : [
                12
            ],
            "name" : "Wheel_A003",
            "rotation" : [
                0,
                -0.7071068286895752,
                -0.7071068286895752,
                5.338507946817117e-08
            ],
            "translation" : [
                786.6185302734375,
                345.4945983886719,
                8987.4091796875
            ]
        },
        {
            "children" : [
                1,
                3,
                5,
                7,
                9,
                11,
                13
            ],
            "name" : "RootNode.001",
            "rotation" : [
                0,
                -0.7071068286895752,
                0,
                0.7071068286895752
            ],
            "scale" : [
                0.0010000000474974513,
                0.0010000000474974513,
                0.0010000000474974513
            ],
            "translation" : [
                7.599999904632568,
                0,
                0
            ]
        }
    ],
    "materials" : [
        {
            "alphaMode" : "BLEND",
            "doubleSided" : true,
            "name" : "Glass_5",
            "pbrMetallicRoughness" : {
                "baseColorFactor" : [
                    0,
                    0,
                    0,
                    0.6812118887901306
                ],
                "metallicFactor" : 0,
                "roughnessFactor" : 0
            }
        },
        {
            "name" : "Optics_5",
            "pbrMetallicRoughness" : {
                "baseColorTexture" : {
                    "index" : 0
                },
                "metallicFactor" : 0,
                "roughnessFactor" : 0
            }
        },
        {
            "name" : "Body_5",
            "pbrMetallicRoughness" : {
                "baseColorTexture" : {
                    "index" : 1
                },
                "metallicRoughnessTexture" : {
                    "index" : 2
                }
            }
        },
        {
            "name" : "Wheel_4",
            "pbrMetallicRoughness" : {
                "baseColorTexture" : {
                    "index" : 3
                },
                "metallicRoughnessTexture" : {
                    "index" : 4
                }
            }
        }
    ],
    "meshes" : [
        {
            "name" : "Sedan Body_Glass_0",
            "primitives" : [
                {
                    "attributes" : {
                        "POSITION" : 0,
                        "NORMAL" : 1,
                        "TEXCOORD_0" : 2
                    },
                    "indices" : 3,
                    "material" : 0
                }
            ]
        },
        {
            "name" : "Sedan Body_Optics_0",
            "primitives" : [
                {
                    "attributes" : {
                        "POSITION" : 4,
                        "NORMAL" : 5,
                        "TEXCOORD_0" : 6
                    },
                    "indices" : 7,
                    "material" : 1
                }
            ]
        },
        {
            "name" : "Sedan Body_Body_0",
            "primitives" : [
                {
                    "attributes" : {
                        "POSITION" : 8,
                        "NORMAL" : 9,
                        "TEXCOORD_0" : 10
                    },
                    "indices" : 11,
                    "material" : 2
                }
            ]
        },
        {
            "name" : "Wheel_A_Wheel_0",
            "primitives" : [
                {
                    "attributes" : {
                        "POSITION" : 12,
                        "NORMAL" : 13,
                        "TEXCOORD_0" : 14
                    },
                    "indices" : 15,
                    "material" : 3
                }
            ]
        },
        {
            "name" : "Wheel_A001_Wheel_0",
            "primitives" : [
                {
                    "attributes" : {
                        "POSITION" : 16,
                        "NORMAL" : 17,
                        "TEXCOORD_0" : 18
                    },
                    "indices" : 15,
                    "material" : 3
                }
            ]
        },
        {
            "name" : "Wheel_A002_Wheel_0",
            "primitives" : [
                {
                    "attributes" : {
                        "POSITION" : 19,
                        "NORMAL" : 20,
                        "TEXCOORD_0" : 21
                    },
                    "indices" : 22,
                    "material" : 3
                }
            ]
        },
        {
            "name" : "Wheel_A003_Wheel_0",
            "primitives" : [
                {
                    "attributes" : {
                        "POSITION" : 23,
                        "NORMAL" : 24,
                        "TEXCOORD_0" : 25
                    },
                    "indices" : 22,
                    "material" : 3
                }
            ]
        }
    ],
    "textures" : [
        {
            "sampler" : 0,
            "source" : 0
        },
        {
            "sampler" : 0,
            "source" : 1
        },
        {
            "sampler" : 0,
            "source" : 2
        },
        {
            "sampler" : 0,
            "source" : 3
        },
        {
            "sampler" : 0,
            "source" : 4
        }
    ],
    "images" : [
        {
            "bufferView" : 8,
            "mimeType" : "image/jpeg",
            "name" : "Optics_baseColor"
        },
        {
            "bufferView" : 13,
            "mimeType" : "image/png",
            "name" : "Body_5_baseColor"
        },
        {
            "bufferView" : 14,
            "mimeType" : "image/png",
            "name" : "Body_5_metallicRoughness"
        },
        {
            "bufferView" : 19,
            "mimeType" : "image/png",
            "name" : "Wheel_4_baseColor"
        },
        {
            "bufferView" : 20,
            "mimeType" : "image/png",
            "name" : "Wheel_4_metallicRoughness"
        }
    ],
    "accessors" : [
        {
            "bufferView" : 0,
            "componentType" : 5126,
            "count" : 90,
            "max" : [
                865.2921142578125,
                1594.96875,
                1455.3372802734375
            ],
            "min" : [
                -865.2918701171875,
                -1143.144775390625,
                1014.224609375
            ],
            "type" : "VEC3"
        },
        {
            "bufferView" : 1,
            "componentType" : 5126,
            "count" : 90,
            "type" : "VEC3"
        },
        {
            "bufferView" : 2,
            "componentType" : 5126,
            "count" : 90,
            "type" : "VEC2"
        },
        {
            "bufferView" : 3,
            "componentType" : 5123,
            "count" : 252,
            "type" : "SCALAR"
        },
        {
            "bufferView" : 4,
            "componentType" : 5126,
            "count" : 464,
            "max" : [
                825.053466796875,
                2374.5341796875,
                857.822021484375
            ],
            "min" : [
                -825.052490234375,
                -2312.089111328125,
                435.1604919433594
            ],
            "type" : "VEC3"
        },
        {
            "bufferView" : 5,
            "componentType" : 5126,
            "count" : 464,
            "type" : "VEC3"
        },
        {
            "bufferView" : 6,
            "componentType" : 5126,
            "count" : 464,
            "type" : "VEC2"
        },
        {
            "bufferView" : 7,
            "componentType" : 5123,
            "count" : 1062,
            "type" : "SCALAR"
        },
        {
            "bufferView" : 9,
            "componentType" : 5126,
            "count" : 5855,
            "max" : [
                1092.3685302734375,
                2441.7822265625,
                1513.224853515625
            ],
            "min" : [
                -1092.3685302734375,
                -2463.352783203125,
                165.95535278320312
            ],
            "type" : "VEC3"
        },
        {
            "bufferView" : 10,
            "componentType" : 5126,
            "count" : 5855,
            "type" : "VEC3"
        },
        {
            "bufferView" : 11,
            "componentType" : 5126,
            "count" : 5855,
            "type" : "VEC2"
        },
        {
            "bufferView" : 12,
            "componentType" : 5123,
            "count" : 12948,
            "type" : "SCALAR"
        },
        {
            "bufferView" : 15,
            "componentType" : 5126,
            "count" : 587,
            "max" : [
                127.91349792480469,
                342.5674743652344,
                342.5674743652344
            ],
            "min" : [
                -127.91352081298828,
                -342.5674743652344,
                -342.5674743652344
            ],
            "type" : "VEC3"
        },
        {
            "bufferView" : 16,
            "componentType" : 5126,
            "count" : 587,
            "type" : "VEC3"
        },
        {
            "bufferView" : 17,
            "componentType" : 5126,
            "count" : 587,
            "type" : "VEC2"
        },
        {
            "bufferView" : 18,
            "componentType" : 5123,
            "count" : 1776,
            "type" : "SCALAR"
        },
        {
            "bufferView" : 21,
            "componentType" : 5126,
            "count" : 587,
            "max" : [
                127.91349792480469,
                342.5674743652344,
                342.5674743652344
            ],
            "min" : [
                -127.91352081298828,
                -342.5674743652344,
                -342.5674743652344
            ],
            "type" : "VEC3"
        },
        {
            "bufferView" : 22,
            "componentType" : 5126,
            "count" : 587,
            "type" : "VEC3"
        },
        {
            "bufferView" : 23,
            "componentType" : 5126,
            "count" : 587,
            "type" : "VEC2"
        },
        {
            "bufferView" : 24,
            "componentType" : 5126,
            "count" : 589,
            "max" : [
                127.91352081298828,
                342.5675048828125,
                342.5674743652344
            ],
            "min" : [
                -127.91350555419922,
                -342.5675048828125,
                -342.5674743652344
            ],
            "type" : "VEC3"
        },
        {
            "bufferView" : 25,
            "componentType" : 5126,
            "count" : 589,
            "type" : "VEC3"
        },
        {
            "bufferView" : 26,
            "componentType" : 5126,
            "count" : 589,
            "type" : "VEC2"
        },
        {
            "bufferView" : 27,
            "componentType" : 5123,
            "count" : 1776,
            "type" : "SCALAR"
        },
        {
            "bufferView" : 28,
            "componentType" : 5126,
            "count" : 589,
            "max" : [
                127.91352081298828,
                342.5675048828125,
                342.5674743652344
            ],
            "min" : [
                -127.91350555419922,
                -342.5675048828125,
                -342.5674743652344
            ],
            "type" : "VEC3"
        },
        {
            "bufferView" : 29,
            "componentType" : 5126,
            "count" : 589,
            "type" : "VEC3"
        },
        {
            "bufferView" : 30,
            "componentType" : 5126,
            "count" : 589,
            "type" : "VEC2"
        }
    ],
    "bufferViews" : [
        {
            "buffer" : 0,
            "byteLength" : 1080,
            "byteOffset" : 0
        },
        {
            "buffer" : 0,
            "byteLength" : 1080,
            "byteOffset" : 1080
        },
        {
            "buffer" : 0,
            "byteLength" : 720,
            "byteOffset" : 2160
        },
        {
            "buffer" : 0,
            "byteLength" : 504,
            "byteOffset" : 2880
        },
        {
            "buffer" : 0,
            "byteLength" : 5568,
            "byteOffset" : 3384
        },
        {
            "buffer" : 0,
            "byteLength" : 5568,
            "byteOffset" : 8952
        },
        {
            "buffer" : 0,
            "byteLength" : 3712,
            "byteOffset" : 14520
        },
        {
            "buffer" : 0,
            "byteLength" : 2124,
            "byteOffset" : 18232
        },
        {
            "buffer" : 0,
            "byteLength" : 818702,
            "byteOffset" : 20356
        },
        {
            "buffer" : 0,
            "byteLength" : 70260,
            "byteOffset" : 839060
        },
        {
            "buffer" : 0,
            "byteLength" : 70260,
            "byteOffset" : 909320
        },
        {
            "buffer" : 0,
            "byteLength" : 46840,
            "byteOffset" : 979580
        },
        {
            "buffer" : 0,
            "byteLength" : 25896,
            "byteOffset" : 1026420
        },
        {
            "buffer" : 0,
            "byteLength" : 1025112,
            "byteOffset" : 1052316
        },
        {
            "buffer" : 0,
            "byteLength" : 50293,
            "byteOffset" : 2077428
        },
        {
            "buffer" : 0,
            "byteLength" : 7044,
            "byteOffset" : 2127724
        },
        {
            "buffer" : 0,
            "byteLength" : 7044,
            "byteOffset" : 2134768
        },
        {
            "buffer" : 0,
            "byteLength" : 4696,
            "byteOffset" : 2141812
        },
        {
            "buffer" : 0,
            "byteLength" : 3552,
            "byteOffset" : 2146508
        },
        {
            "buffer" : 0,
            "byteLength" : 571566,
            "byteOffset" : 2150060
        },
        {
            "buffer" : 0,
            "byteLength" : 33329,
            "byteOffset" : 2721628
        },
        {
            "buffer" : 0,
            "byteLength" : 7044,
            "byteOffset" : 2754960
        },
        {
            "buffer" : 0,
            "byteLength" : 7044,
            "byteOffset" : 2762004
        },
        {
            "buffer" : 0,
            "byteLength" : 4696,
            "byteOffset" : 2769048
        },
        {
            "buffer" : 0,
            "byteLength" : 7068,
            "byteOffset" : 2773744
        },
        {
            "buffer" : 0,
            "byteLength" : 7068,
            "byteOffset" : 2780812
        },
        {
            "buffer" : 0,
            "byteLength" : 4712,
            "byteOffset" : 2787880
        },
        {
            "buffer" : 0,
            "byteLength" : 3552,
            "byteOffset" : 2792592
        },
        {
            "buffer" : 0,
            "byteLength" : 7068,
            "byteOffset" : 2796144
        },
        {
            "buffer" : 0,
            "byteLength" : 7068,
            "byteOffset" : 2803212
        },
        {
            "buffer" : 0,
            "byteLength" : 4712,
            "byteOffset" : 2810280
        }
    ],
    "samplers" : [
        {
            "magFilter" : 9729,
            "minFilter" : 9987
        }
    ],
    "buffers" : [
        {
            "byteLength" : 2814992,
            "uri" : "data:application/octet-stream;base64,"
        }
    ]
}
